<mxfile host="app.diagrams.net" modified="2023-07-10T01:22:54.295Z" agent="Mozilla/5.0 (Macintosh; Intel Mac OS X 10_15_7) AppleWebKit/537.36 (KHTML, like Gecko) Chrome/114.0.0.0 Safari/537.36" etag="7e7cjFpd8rhT_OhhYHeX" version="21.5.2" type="github">
  <diagram name="Page-1" id="p2gWTlJdDhgrv49eY7xo">
    <mxGraphModel dx="966" dy="692" grid="1" gridSize="10" guides="1" tooltips="1" connect="1" arrows="1" fold="1" page="1" pageScale="1" pageWidth="850" pageHeight="1100" math="0" shadow="0">
      <root>
        <mxCell id="0" />
        <mxCell id="1" parent="0" />
        <mxCell id="-CaoJ3D4BC-GMYlmr7oM-1" value="" style="rounded=0;whiteSpace=wrap;html=1;fillColor=#dae8fc;strokeColor=#6c8ebf;" vertex="1" parent="1">
          <mxGeometry x="160" y="160" width="530" height="340" as="geometry" />
        </mxCell>
        <mxCell id="-CaoJ3D4BC-GMYlmr7oM-2" value="Host: M2 MacbookPro" style="text;html=1;strokeColor=none;fillColor=none;align=center;verticalAlign=middle;whiteSpace=wrap;rounded=0;fontStyle=1" vertex="1" parent="1">
          <mxGeometry x="360" y="160" width="130" height="30" as="geometry" />
        </mxCell>
        <mxCell id="-CaoJ3D4BC-GMYlmr7oM-14" style="edgeStyle=orthogonalEdgeStyle;rounded=0;orthogonalLoop=1;jettySize=auto;html=1;exitX=1;exitY=0.5;exitDx=0;exitDy=0;entryX=0.5;entryY=0;entryDx=0;entryDy=0;dashed=1;startArrow=classic;startFill=1;endArrow=none;endFill=0;" edge="1" parent="1" source="-CaoJ3D4BC-GMYlmr7oM-3" target="-CaoJ3D4BC-GMYlmr7oM-11">
          <mxGeometry relative="1" as="geometry" />
        </mxCell>
        <mxCell id="-CaoJ3D4BC-GMYlmr7oM-3" value="QEMU" style="rounded=0;whiteSpace=wrap;html=1;fillColor=#d5e8d4;strokeColor=#82b366;fontStyle=1" vertex="1" parent="1">
          <mxGeometry x="430" y="220" width="120" height="60" as="geometry" />
        </mxCell>
        <mxCell id="-CaoJ3D4BC-GMYlmr7oM-15" style="edgeStyle=orthogonalEdgeStyle;rounded=0;orthogonalLoop=1;jettySize=auto;html=1;exitX=1;exitY=0.5;exitDx=0;exitDy=0;entryX=0.5;entryY=1;entryDx=0;entryDy=0;dashed=1;" edge="1" parent="1" source="-CaoJ3D4BC-GMYlmr7oM-4" target="-CaoJ3D4BC-GMYlmr7oM-11">
          <mxGeometry relative="1" as="geometry">
            <mxPoint x="630" y="400" as="targetPoint" />
            <Array as="points">
              <mxPoint x="630" y="420" />
            </Array>
          </mxGeometry>
        </mxCell>
        <mxCell id="-CaoJ3D4BC-GMYlmr7oM-4" value="" style="rounded=0;whiteSpace=wrap;html=1;fillColor=#d5e8d4;strokeColor=#82b366;" vertex="1" parent="1">
          <mxGeometry x="270" y="360" width="280" height="120" as="geometry" />
        </mxCell>
        <mxCell id="-CaoJ3D4BC-GMYlmr7oM-8" style="edgeStyle=orthogonalEdgeStyle;rounded=0;orthogonalLoop=1;jettySize=auto;html=1;exitX=0;exitY=0.5;exitDx=0;exitDy=0;entryX=0;entryY=0.5;entryDx=0;entryDy=0;dashed=1;" edge="1" parent="1" source="-CaoJ3D4BC-GMYlmr7oM-5" target="-CaoJ3D4BC-GMYlmr7oM-6">
          <mxGeometry relative="1" as="geometry">
            <Array as="points">
              <mxPoint x="240" y="250" />
              <mxPoint x="240" y="435" />
            </Array>
          </mxGeometry>
        </mxCell>
        <mxCell id="-CaoJ3D4BC-GMYlmr7oM-5" value="VS Code" style="rounded=0;whiteSpace=wrap;html=1;fillColor=#d5e8d4;strokeColor=#82b366;fontStyle=1" vertex="1" parent="1">
          <mxGeometry x="270" y="220" width="120" height="60" as="geometry" />
        </mxCell>
        <mxCell id="-CaoJ3D4BC-GMYlmr7oM-6" value="Kernel Dev Env&lt;br&gt;(source code location)" style="rounded=0;whiteSpace=wrap;html=1;fillColor=#e1d5e7;strokeColor=none;" vertex="1" parent="1">
          <mxGeometry x="290" y="410" width="130" height="50" as="geometry" />
        </mxCell>
        <mxCell id="-CaoJ3D4BC-GMYlmr7oM-7" value="&lt;span style=&quot;&quot;&gt;&lt;b&gt;Docker: Ubuntu&lt;/b&gt;&lt;/span&gt;" style="text;html=1;strokeColor=none;fillColor=none;align=center;verticalAlign=middle;whiteSpace=wrap;rounded=0;fontStyle=0" vertex="1" parent="1">
          <mxGeometry x="345" y="360" width="130" height="30" as="geometry" />
        </mxCell>
        <mxCell id="-CaoJ3D4BC-GMYlmr7oM-9" value="Dev Containers" style="text;html=1;strokeColor=none;fillColor=none;align=center;verticalAlign=middle;whiteSpace=wrap;rounded=0;" vertex="1" parent="1">
          <mxGeometry x="170" y="315" width="70" height="30" as="geometry" />
        </mxCell>
        <mxCell id="-CaoJ3D4BC-GMYlmr7oM-11" value="" style="rounded=0;whiteSpace=wrap;html=1;fillColor=#d5e8d4;strokeColor=#82b366;gradientColor=none;" vertex="1" parent="1">
          <mxGeometry x="580" y="270" width="100" height="130" as="geometry" />
        </mxCell>
        <mxCell id="-CaoJ3D4BC-GMYlmr7oM-12" value="Kernel Image" style="rounded=0;whiteSpace=wrap;html=1;fillColor=#f8cecc;strokeColor=none;" vertex="1" parent="1">
          <mxGeometry x="590" y="303" width="80" height="40" as="geometry" />
        </mxCell>
        <mxCell id="-CaoJ3D4BC-GMYlmr7oM-13" value="Root FS&lt;br&gt;Image" style="rounded=0;whiteSpace=wrap;html=1;fillColor=#f8cecc;strokeColor=none;" vertex="1" parent="1">
          <mxGeometry x="590" y="350" width="80" height="40" as="geometry" />
        </mxCell>
        <mxCell id="-CaoJ3D4BC-GMYlmr7oM-17" value="Output" style="text;html=1;strokeColor=none;fillColor=none;align=center;verticalAlign=middle;whiteSpace=wrap;rounded=0;" vertex="1" parent="1">
          <mxGeometry x="560" y="420" width="60" height="30" as="geometry" />
        </mxCell>
        <mxCell id="-CaoJ3D4BC-GMYlmr7oM-18" value="Input" style="text;html=1;strokeColor=none;fillColor=none;align=center;verticalAlign=middle;whiteSpace=wrap;rounded=0;" vertex="1" parent="1">
          <mxGeometry x="560" y="222" width="60" height="30" as="geometry" />
        </mxCell>
        <mxCell id="-CaoJ3D4BC-GMYlmr7oM-19" value="Shared Folder" style="text;html=1;strokeColor=none;fillColor=none;align=center;verticalAlign=middle;whiteSpace=wrap;rounded=0;fontStyle=1" vertex="1" parent="1">
          <mxGeometry x="586" y="269" width="90" height="30" as="geometry" />
        </mxCell>
        <mxCell id="-CaoJ3D4BC-GMYlmr7oM-20" value="BusyBox" style="rounded=0;whiteSpace=wrap;html=1;fillColor=#e1d5e7;strokeColor=none;" vertex="1" parent="1">
          <mxGeometry x="440" y="410" width="100" height="50" as="geometry" />
        </mxCell>
      </root>
    </mxGraphModel>
  </diagram>
</mxfile>
